<?xml version="1.0" standalone="no"?>
<!DOCTYPE svg PUBLIC "-//W3C//DTD SVG 20010904//EN"
 "http://www.w3.org/TR/2001/REC-SVG-20010904/DTD/svg10.dtd">
<svg version="1.0" xmlns="http://www.w3.org/2000/svg"
 width="700.000000pt" height="700.000000pt" viewBox="0 0 700.000000 700.000000"
 preserveAspectRatio="xMidYMid meet">
<metadata>
Created by potrace 1.11, written by Peter Selinger 2001-2013
</metadata>
<g transform="translate(0.000000,700.000000) scale(0.100000,-0.100000)"
fill="#000000" stroke="none">
<path d="M3050 6984 c-532 -72 -1035 -259 -1480 -552 -63 -42 -117 -78 -120
-82 -3 -3 -39 -30 -81 -61 -41 -31 -82 -63 -90 -70 -8 -8 -37 -32 -64 -54 -66
-52 -293 -280 -374 -375 -408 -475 -713 -1131 -796 -1710 -3 -19 -7 -48 -10
-65 -2 -16 -7 -55 -11 -85 -4 -30 -9 -64 -11 -75 -12 -49 -10 -576 2 -690 16
-145 33 -268 45 -315 5 -19 11 -46 13 -60 26 -145 114 -431 187 -610 141 -342
311 -623 564 -929 81 -98 298 -318 375 -381 23 -19 54 -45 67 -57 40 -37 173
-136 274 -205 409 -278 920 -481 1395 -553 61 -10 118 -19 127 -20 103 -20
592 -27 758 -12 303 27 712 123 935 218 17 7 32 13 35 13 93 19 655 323 748
406 9 8 44 35 77 59 225 166 483 423 663 659 297 389 519 854 626 1312 21 92
29 130 51 250 33 184 40 288 40 565 0 214 -7 361 -19 435 -3 14 -7 47 -11 74
-3 27 -13 85 -21 130 -9 44 -18 92 -21 106 -40 223 -171 589 -301 845 -89 175
-240 424 -264 433 -4 2 -8 8 -8 13 0 5 -32 51 -72 102 -481 620 -1138 1057
-1883 1252 -71 19 -141 36 -155 39 -14 2 -63 11 -110 20 -201 38 -292 44 -635
44 -235 0 -373 -5 -445 -14z"/>
</g>
</svg>
